<?xml version="1.0" encoding="UTF-8" standalone="no"?>
<svg width="100px" height="100px" viewBox="0 0 100 100" version="1.1" xmlns="http://www.w3.org/2000/svg" xmlns:xlink="http://www.w3.org/1999/xlink" xmlns:sketch="http://www.bohemiancoding.com/sketch/ns">
    <!-- Generator: Sketch 3.4.2 (15857) - http://www.bohemiancoding.com/sketch -->
    <title>Icon/What</title>
    <desc>Created with Sketch.</desc>
    <defs></defs>
    <g id="Home" stroke="none" stroke-width="1" fill="none" fill-rule="evenodd" sketch:type="MSPage">
        <g id="CareerEN/Home" sketch:type="MSArtboardGroup" transform="translate(-270.000000, -790.000000)">
            <g id="Menu" sketch:type="MSLayerGroup" transform="translate(0.000000, 700.000000)">
                <g id="What" transform="translate(160.000000, 63.000000)" sketch:type="MSShapeGroup">
                    <g transform="translate(102.000000, 27.000000)" id="Icon/What">
                        <g transform="translate(8.000000, 0.000000)">
                            <rect id="Rectangle-29" fill="#FFFFFF" x="0" y="0" width="100" height="100"></rect>
                            <path d="M49.7001979,18.8463011 C34.6054127,18.8501308 22.3254612,30.7260484 22.3254612,45.3172273 C22.3254612,54.7880896 26.1685709,60.4215868 28.9987234,64.5729878 C30.7393247,67.1274015 31.7254739,68.6477947 31.7254739,70.1777622 C31.7254739,73.6110934 33.5656475,76.8471947 36.8362163,79.2733133 C36.9185549,81.3088019 37.2191868,86.27976 37.2191868,86.27976 L37.2191868,86.2855046 C37.2728027,87.6967511 38.0157656,90.5900938 42.8794919,92.2062297 C43.4520329,93.0487649 44.2045701,93.7974724 45.1160401,94.4063956 C45.6866662,94.791281 46.3606945,95 47.0500415,95 L52.3503542,95 C53.0397013,95 53.7118146,94.7970256 54.2843557,94.4063956 C55.1977405,93.7955575 55.9521925,93.0487649 56.5209038,92.2062297 C61.4286717,90.5728602 62.1429119,87.646965 62.1831238,86.2759303 C62.1831238,86.2759303 62.4818408,81.3126316 62.5641795,79.2752282 C65.8347482,76.8471947 67.6768367,73.6130082 67.6768367,70.179677 C67.6768367,68.6497096 68.661071,67.1274015 70.418906,64.5538393 C73.2279951,60.4369056 77.0787643,54.7976639 77.0787643,45.3153124 C77.0768494,30.7203038 64.7949831,18.8463011 49.7001979,18.8463011 L49.7001979,18.8463011 Z M64.6820068,60.6743474 C62.6599221,63.6385396 60.7527287,66.4380545 60.7527287,70.1777622 C60.7527287,71.8207059 59.2668028,73.1438693 58.1600179,73.9078956 L41.2422927,73.9078956 C40.1355078,73.1457841 38.6495819,71.8207059 38.6495819,70.1777622 C38.6495819,66.4380545 36.7404736,63.6385396 34.6954107,60.63988 C32.1429119,56.8963426 29.2476543,52.6511138 29.2476543,45.3191421 C29.2476543,34.544265 38.4236293,25.7742388 49.7021127,25.7704091 C60.982511,25.7704091 70.1565711,34.5385205 70.1565711,45.3153124 C70.1565711,52.6626029 67.255569,56.9020872 64.6820068,60.6743474 Z M49.7001979,13.6532201 C50.6557095,13.6532201 51.42931,12.8796196 51.42931,11.9221931 L51.42931,6.731027 C51.42931,5.77551541 50.6557095,5 49.7001979,5 C48.7446863,5 47.9691709,5.77551541 47.9691709,6.731027 L47.9691709,11.9221931 C47.9691709,12.8796196 48.7446863,13.6532201 49.7001979,13.6532201 Z M31.3118657,17.3144188 C31.633561,17.8697262 32.2137614,18.1799323 32.8131104,18.1799323 C33.1060828,18.1799323 33.4047999,18.1052531 33.676709,17.9482351 C34.5058403,17.4695219 34.7892385,16.4125231 34.3105253,15.5833918 L31.7139848,11.0873173 C31.2352716,10.258186 30.1782728,9.97478777 29.3491415,10.453501 C28.5219251,10.9322142 28.2385268,11.989213 28.7153252,12.8183443 L31.3118657,17.3144188 Z M21.3144188,27.3118657 L16.8183443,24.7172401 C15.989213,24.2385268 14.9322142,24.5238399 14.453501,25.3510564 C13.9767026,26.1782728 14.2601008,27.2371864 15.0873173,27.7158997 L19.5833918,30.3105253 C19.855301,30.4675432 20.154018,30.5422225 20.4469905,30.5422225 C21.0463394,30.5422225 21.6265399,30.2320163 21.9482351,29.676709 C22.4250335,28.8494926 22.1416353,27.7905789 21.3144188,27.3118657 Z M17.6532201,45.7001979 C17.6532201,44.7446863 16.8777047,43.9691709 15.9221931,43.9691709 L10.731027,43.9691709 C9.77551541,43.9691709 9,44.7446863 9,45.7001979 C9,46.6557095 9.77551541,47.4312249 10.731027,47.4312249 L15.9221931,47.4312249 C16.8777047,47.4312249 17.6532201,46.6557095 17.6532201,45.7001979 Z M19.5833918,61.0898704 L15.0854024,63.6825812 C14.258186,64.1612944 13.9728729,65.2202081 14.4496713,66.0455097 C14.7694517,66.6027319 15.3534818,66.9110232 15.9509159,66.9110232 C16.2438884,66.9110232 16.5426055,66.8363439 16.8145146,66.679326 L21.3105891,64.0866152 C22.1397204,63.607902 22.4231187,62.5489883 21.9463203,61.7236867 C21.4695219,60.8926406 20.4125231,60.6111572 19.5833918,61.0898704 Z M84.3149933,63.6864109 L79.8189187,61.0898704 C78.9878726,60.6111572 77.9327887,60.8926406 77.4540754,61.7217719 C76.9753622,62.5509032 77.2568456,63.607902 78.0859769,64.0866152 L82.5820514,66.6812408 C82.8577903,66.8401736 83.1526776,66.912938 83.4456501,66.912938 C84.044999,66.912938 84.6251995,66.6027319 84.9468947,66.0493394 C85.4217783,65.2240378 85.1422097,64.1612944 84.3149933,63.6864109 Z M88.6693687,43.9710857 L83.4820323,43.9691709 C82.5246059,43.9691709 81.7510053,44.7446863 81.7510053,45.698283 C81.7510053,46.6557095 82.5246059,47.42931 83.4782026,47.42931 L88.6693687,47.4312249 C89.6229655,47.4312249 90.3984809,46.6557095 90.3984809,45.7021127 C90.3984809,44.7466011 89.6267952,43.9710857 88.6693687,43.9710857 Z M78.9514904,30.5403077 C79.2463777,30.5403077 79.5450948,30.4656284 79.815089,30.3086105 L84.3130784,27.7158997 C85.1422097,27.2391013 85.425608,26.1801877 84.9488096,25.3529712 C84.4700964,24.5238399 83.4092679,24.2404417 82.5839663,24.7191549 L78.0878917,27.3118657 C77.2568456,27.7905789 76.9753622,28.8494926 77.4521606,29.6747942 C77.7738559,30.2301015 78.3559711,30.5403077 78.9514904,30.5403077 Z M65.7236867,17.9444054 C65.9955958,18.1033382 66.292398,18.1780175 66.5872854,18.1780175 C67.1847195,18.1780175 67.7649199,17.8678113 68.0866152,17.312504 L70.679326,12.8183443 C71.1580392,11.9911278 70.8765558,10.9322142 70.0474245,10.4554158 C69.2182932,9.97478777 68.1612944,10.258186 67.6825812,11.0892321 L65.0898704,15.5833918 C64.6130721,16.4086934 64.8983851,17.4676071 65.7236867,17.9444054 Z M49.7001979,61.5322014 C47.3238654,61.5322014 45.3726304,63.4853514 45.3726304,65.8597689 C45.3726304,68.2341865 47.3257803,70.1854216 49.7001979,70.1854216 C52.0746154,70.1854216 54.0258505,68.2341865 54.0258505,65.8597689 C54.0277654,63.4853514 52.0746154,61.5322014 49.7001979,61.5322014 Z M47.3793962,56.1533797 C47.5881151,57.685262 48.3291632,58.1084445 49.7001979,58.1084445 C51.0693177,58.1084445 51.8122806,57.685262 52.0229144,56.1533797 L53.6581988,43.8083232 C53.7616008,42.965788 53.8650029,42.1213378 53.8650029,41.3305036 L53.8650029,35.2106338 C53.8650029,32.5202655 52.3350354,31.147316 49.698283,31.147316 C47.0596158,31.147316 45.5296483,32.5183507 45.5296483,35.2106338 L45.5296483,41.3305036 C45.5296483,42.1213378 45.6349652,42.965788 45.7402821,43.8083232 L47.3793962,56.1533797 Z" id="Fill-1" fill="#03A9F4"></path>
                        </g>
                    </g>
                </g>
            </g>
        </g>
    </g>
</svg>